<?xml version="1.0" encoding="UTF-8"?>
<svg width="40px" height="40px" viewBox="0 0 40 40" version="1.1" xmlns="http://www.w3.org/2000/svg" xmlns:xlink="http://www.w3.org/1999/xlink">
    <!-- Generator: Sketch 58 (84663) - https://sketch.com -->
    <title>关闭</title>
    <desc>Created with Sketch.</desc>
    <g id="页面-1" stroke="none" stroke-width="1" fill="none" fill-rule="evenodd">
        <g id="画板" transform="translate(-824.000000, -1040.000000)" fill="#FFFFFF" fill-rule="nonzero">
            <g id="编组-24" transform="translate(675.000000, 1030.000000)">
                <g id="编组" transform="translate(149.000000, 10.000000)">
                    <path d="M20,0 C8.97283393,0 0,8.97145161 0,20 C0,31.0285484 8.97145161,40 20,40 C31.0271661,40 40,31.0285484 40,20 C40,8.97145161 31.0285484,0 20,0 Z M28.1585808,26.1600015 C28.7157256,26.7199877 28.7142665,27.6228617 28.1557395,28.1800065 C27.8772055,28.4571582 27.5128919,28.5971547 27.1471961,28.5971547 C26.7800411,28.5971547 26.4143453,28.4571582 26.1357345,28.1771651 L19.9928581,22.0157045 L13.8300152,28.112888 C13.5514812,28.3871983 13.18855,28.5257358 12.8256955,28.5257358 C12.4571582,28.5257358 12.0900033,28.3842801 11.8100102,28.1014456 C11.2557068,27.5400004 11.2600073,26.6371263 11.8214526,26.0814406 L17.9771536,19.9928581 L11.8442606,13.8399984 C11.2871158,13.2813946 11.2885749,12.3771382 11.847102,11.8199934 C12.4057058,11.2613896 13.3085031,11.2643078 13.867107,11.8228348 L20.0085242,17.9828363 L26.1713671,11.8857296 C26.7313533,11.3300439 27.6370687,11.3357267 28.1913721,11.897172 C28.7470578,12.4586172 28.741375,13.3628736 28.1799297,13.917177 L22.0243055,20.0056828 L28.1585808,26.1600015 Z" id="形状"></path>
                </g>
            </g>
        </g>
    </g>
</svg>