<?xml version="1.0" encoding="UTF-8"?>
<svg width="40px" height="40px" viewBox="0 0 40 40" version="1.1" xmlns="http://www.w3.org/2000/svg" xmlns:xlink="http://www.w3.org/1999/xlink">
    <!-- Generator: Sketch 58 (84663) - https://sketch.com -->
    <title>播放</title>
    <desc>Created with Sketch.</desc>
    <g id="页面-1" stroke="none" stroke-width="1" fill="none" fill-rule="evenodd">
        <g id="画板" transform="translate(-788.000000, -333.000000)" fill="#86F7FF" fill-rule="nonzero">
            <g id="编组-24" transform="translate(780.000000, 319.000000)">
                <g id="编组" transform="translate(8.000000, 14.000000)">
                    <path d="M20,0 C8.95426134,0 0,8.95426134 0,20 C0,31.0457387 8.95426138,40 20,40 C31.0457386,40 40,31.0457386 40,20 C40,8.95426138 31.0457387,0 20,0 Z M28.3755682,21.3278409 L17.0119318,28.8278409 C16.523372,29.149883 15.8974608,29.1777335 15.3822293,28.9003559 C14.8669978,28.6229784 14.5456222,28.0851511 14.5454545,27.5 L14.5454545,12.5014204 C14.5454545,11.9160801 14.8669392,11.3780351 15.382364,11.1006174 C15.8977888,10.8231997 16.52392,10.8512242 17.0125,11.1735795 L28.3761364,18.6735795 C28.8223114,18.9680162 29.0907862,19.4668504 29.0907862,20.0014204 C29.0907862,20.5359905 28.8223114,21.0348247 28.3761364,21.3292614 L28.3755682,21.3278409 Z" id="形状"></path>
                </g>
            </g>
        </g>
    </g>
</svg>