<?xml version="1.0" encoding="UTF-8"?>
<svg width="40px" height="40px" viewBox="0 0 40 40" version="1.1" xmlns="http://www.w3.org/2000/svg" xmlns:xlink="http://www.w3.org/1999/xlink">
    <!-- Generator: Sketch 58 (84663) - https://sketch.com -->
    <title>暂停</title>
    <desc>Created with Sketch.</desc>
    <g id="页面-1" stroke="none" stroke-width="1" fill="none" fill-rule="evenodd">
        <g id="画板" transform="translate(-758.000000, -1040.000000)" fill="#FFFFFF" fill-rule="nonzero">
            <g id="编组-24" transform="translate(675.000000, 1030.000000)">
                <g id="编组" transform="translate(83.000000, 10.000000)">
                    <path d="M40,19.9998828 C40,31.0453511 31.0455855,40 19.9998828,40 C8.9542582,40 0,31.0453511 0,19.9998828 C0,8.95421913 8.95421913,0 19.9998828,0 C31.0455855,0 40,8.95421913 40,19.9998828 Z M16.9534768,13.2985085 C16.9534768,12.3040858 16.1475303,11.4981393 15.1531076,11.4981393 C14.1586849,11.4981393 13.3527384,12.3040858 13.3527384,13.2985085 L13.3527384,26.7012571 C13.3527384,27.6956798 14.1586849,28.5016263 15.1531076,28.5016263 C16.1475303,28.5016263 16.9534768,27.6956798 16.9534768,26.7012571 L16.9534768,13.2985085 Z M26.6304613,13.2985085 C26.6304613,12.3040858 25.8245148,11.4981393 24.8300921,11.4981393 C23.8356694,11.4981393 23.0297229,12.3040858 23.0297229,13.2985085 L23.0297229,26.7014524 C23.0297229,27.6958751 23.8356694,28.5018217 24.8300921,28.5018217 C25.8245148,28.5018217 26.6304613,27.6958751 26.6304613,26.7014524 L26.6304613,13.2985085 Z" id="形状"></path>
                </g>
            </g>
        </g>
    </g>
</svg>